<svg width="512" height="512" viewBox="0 0 512 512" fill="none" xmlns="http://www.w3.org/2000/svg">
<path d="M434.47 124.25H384.67C386.345 121.568 387.666 118.681 388.6 115.66C394.34 97.1 385.33 75.87 366.2 62.82C355.5 55.53 337.41 49.67 311.81 63.19C290.86 74.25 268.57 97.35 256 114.76C243.43 97.35 221.14 74.25 200.18 63.18C174.61 49.66 156.48 55.52 145.8 62.82C126.67 75.87 117.66 97.1 123.4 115.66C124.334 118.681 125.655 121.568 127.33 124.25H77.5301C74.8302 124.25 72.2409 125.323 70.3317 127.232C68.4226 129.141 67.3501 131.73 67.3501 134.43V229.75C67.3501 232.45 68.4226 235.039 70.3317 236.948C72.2409 238.857 74.8302 239.93 77.5301 239.93H98.1601V446.76C98.1601 449.458 99.2313 452.046 101.138 453.955C103.045 455.864 105.632 456.937 108.33 456.94H403.67C405.006 456.94 406.33 456.677 407.564 456.165C408.799 455.653 409.92 454.903 410.865 453.958C411.809 453.012 412.558 451.89 413.069 450.655C413.579 449.42 413.841 448.096 413.84 446.76V239.93H434.47C437.17 239.93 439.759 238.857 441.668 236.948C443.578 235.039 444.65 232.45 444.65 229.75V134.43C444.65 131.73 443.578 129.141 441.668 127.232C439.759 125.323 437.17 124.25 434.47 124.25V124.25ZM211 436.59H118.51V239.93H211V436.59ZM211 219.59H87.7001V144.59H211V219.59ZM171.52 124.26C156.18 124.26 145.73 118.94 142.87 109.67C139.87 99.85 145.78 87.5 157.31 79.67C161.311 76.8875 166.077 75.4132 170.95 75.45C174.123 75.4843 177.274 75.9692 180.31 76.89C202.05 83.25 225.26 108.16 237.64 124.29L171.52 124.26ZM331.71 76.86C340.71 74.25 348.19 75.14 354.71 79.63C366.24 87.49 372.18 99.84 369.16 109.63C366.29 118.9 355.84 124.22 340.5 124.22H274.39C286.75 108.12 310 83.21 331.71 76.86ZM393.49 436.59H301V239.93H393.47L393.49 436.59ZM424.3 219.59H301V144.59H424.3V219.59Z" fill="#A7A9BE"/>
</svg>
