<svg width="512" height="512" viewBox="0 0 512 512" fill="none" xmlns="http://www.w3.org/2000/svg">
<g clip-path="url(#clip0_11:17)">
<path d="M10.2 2.1C7.6 3.4 4.7 6 3.2 8.3L0.5 12.4V120V227.6L3.2 231.7C4.8 234.1 7.6 236.6 10.2 237.9C14.6 240 14.7 240 120 240C225.3 240 225.4 240 229.8 237.9C232.4 236.6 235.2 234.1 236.8 231.7L239.5 227.6V120V12.4L236.8 8.3C235.2 5.9 232.4 3.4 229.8 2.1C225.4 -3.57628e-06 225.3 -3.57628e-06 119.9 -3.57628e-06H14.5L10.2 2.1ZM200 120V200H120H40V120V40H120H200V120Z" fill="#A7A9BE"/>
<path d="M370.2 1.50006C348.4 5.50006 324.8 17.6001 308.1 33.4001C291.5 49.1001 277.5 75.5001 273.5 98.8001C271.6 109.6 271.6 130.4 273.5 141.2C277.5 164.5 291.5 190.9 308.1 206.6C325.1 222.7 348.5 234.6 370.8 238.5C381.6 240.4 402.4 240.4 413.2 238.5C435.5 234.6 458.9 222.7 475.9 206.6C492.5 190.9 506.5 164.5 510.5 141.2C512.4 130.4 512.4 109.6 510.5 98.8001C506.6 76.5001 494.7 53.1001 478.6 36.1001C462.9 19.5001 436.5 5.50006 413.2 1.50006C402.8 -0.299937 380.2 -0.299937 370.2 1.50006ZM409.3 42.6001C432.3 47.7001 453.3 64.7001 463.6 86.5001C468.9 97.9001 471 107.2 471 120C471 132.8 468.9 142.1 463.6 153.5C455.6 170.4 442.4 183.6 425.5 191.6C414.1 196.9 404.8 199 392 199C379.2 199 369.9 196.9 358.5 191.6C341.6 183.6 328.4 170.4 320.4 153.5C315.1 142.1 313 132.8 313 120C313 107.2 315.1 97.9001 320.4 86.5001C330.5 65.0001 350.6 48.5001 373.3 42.9001C382.7 40.6001 399.7 40.5001 409.3 42.6001Z" fill="#A7A9BE"/>
<path d="M11.4999 273.4C7.49986 275.1 3.09986 279.7 1.39986 283.7C-0.500139 288 -0.400139 296.2 1.59986 300.8C2.59986 303.3 17.0999 318.5 46.7999 348.2L90.3999 392L46.2999 436.2C-1.70014 484.5 -0.600139 483.1 0.199861 494C0.899861 504.3 7.69986 511.1 17.9999 511.8C28.8999 512.6 27.4999 513.7 75.6999 465.7L120 421.6L164.2 465.7C212.5 513.7 211.1 512.6 222 511.8C232.3 511.1 239.1 504.3 239.8 494C240.6 483.1 241.7 484.5 193.7 436.3L149.6 392L193.7 347.8C241.7 299.5 240.6 300.9 239.8 290C239.3 282.5 235.8 277 229.8 274.1C224.5 271.6 216.5 271.3 211.2 273.6C208.7 274.6 193.5 289.1 163.7 318.8L120 362.5L76.1999 318.8C46.3999 289 31.2999 274.6 28.7999 273.5C24.2999 271.7 15.5999 271.6 11.4999 273.4Z" fill="#A7A9BE"/>
<path d="M483 273.6C479.2 275.2 280.1 473.4 275.3 480.4C273.2 483.3 272.5 485.7 272.2 490.6C271.6 499.7 275 505.8 283.4 510.7C285 511.6 310.2 511.9 391.4 512H497.4L501.8 509.9C504.4 508.6 507.2 506.1 508.8 503.7L511.5 499.6L511.8 392.8C512.1 276.4 512.4 284 506.4 277.6C504.9 276.1 502.2 274.2 500.4 273.4C496.1 271.6 487.4 271.7 483 273.6ZM472 407V472H406.8H341.5L406.5 407C442.2 371.2 471.6 342 471.7 342C471.9 342 472 371.2 472 407Z" fill="#A7A9BE"/>
</g>
<defs>
<clipPath id="clip0_11:17">
<rect width="512" height="512" fill="white"/>
</clipPath>
</defs>
</svg>
