<svg width="512" height="512" viewBox="0 0 512 512" fill="none" xmlns="http://www.w3.org/2000/svg">
<path d="M47 1.59999C25.6 7.19999 6.9 26 1.5 47.5C-0.4 55.2 -0.4 71.8 1.5 79.5C7 101 25.6 120 46.5 125.4C65.1 130.2 83.8 127 100.3 116.3L103 114.5L134 145.5C161.4 172.9 165 176.8 165 179.6C165 184.4 168.4 188 172.8 188C176.1 188 177.4 188.9 185.1 196.6L193.8 205.3L190.4 209.9C186 216.2 180.5 228 178.3 236C175.8 245 175.8 267 178.3 276C180.5 284 186 295.8 190.4 302L193.8 306.7L120.6 379.7L47.5 452.8L43 450.7C36.4 447.8 25.9 448 18.8 451.2C11.3 454.7 6.6 459.1 3 466.2C0.4 471.5 0 473.4 0 480.5C0 487.6 0.4 489.5 3 494.8C8.8 506.2 18.3 512 31.6 512C38.6 512 40.5 511.6 45.8 509C52.9 505.4 57.3 500.7 60.8 493.1C64.1 485.9 64.3 475.7 61.3 468.9L59.2 464.3L118 405.5L176.7 346.8L181.4 350.4C186.9 354.6 189.8 354.9 193.6 351.6C195.7 349.8 196.4 348.4 196.4 345.5C196.4 342.3 195.8 341.2 192.5 338.4L188.5 335.1L196.9 326.6L205.3 318.2L209.9 321.6C219.1 328.2 230.5 332.6 245.8 335.6L248 336V368.4V400.7L241.9 402.9C220.3 410.8 210 436.4 219.9 457.5C223.6 465.5 230.6 472.6 238.6 476.6C244.1 479.3 245.3 479.5 256 479.5C267.1 479.5 267.7 479.4 273.8 476.2C282.2 471.8 288.4 465.4 292.3 457.2C295.2 451.1 295.5 449.7 295.5 440.5C295.5 431.7 295.2 429.8 292.8 424.7C291.3 421.5 289.1 417.5 287.9 415.9C284.5 411.1 276.4 405.3 270 402.9L264 400.7V388.5V376.2L272.3 375C281.9 373.6 285 371.5 285 366.4C285 359.5 280.9 357.6 269.3 359.3L264 360.1V348.1C264 336.4 264.1 336 266.3 335.6C291.5 330.7 310.1 319.4 321.5 302.2C323 299.9 324.4 298 324.6 298C326.4 298 345.4 308.4 345.2 309.3C345 309.9 342.8 313.4 340.2 316.9C335.1 324.1 334.3 328.5 337.5 332C339.4 334.2 344.8 334.7 347.9 333.1C349.4 332.2 356.8 322 359.6 316.8C360.4 315.4 363.2 316.5 381.5 325.2C393.1 330.7 402.6 335.3 402.6 335.4C402.7 335.4 402.1 338.4 401.4 342C398.9 353.4 401.2 368.2 407.2 379C414 391.1 423.9 399.7 436.6 404.6C445.8 408.2 460.5 409 470 406.5C488.6 401.7 502.9 388.6 509.2 370.6C511.5 363.9 512 360.8 512 352.7C512 336.4 509.5 330.6 502.4 330.6C497.3 330.6 494.7 333.6 495.1 339.1C495.2 341.5 495.4 347.8 495.4 353C495.5 361.6 495.2 363.1 492.4 369C488.5 377.2 481.4 384.2 473 388.3C467 391.3 465.8 391.5 456.5 391.5C447.7 391.5 445.8 391.2 440.7 388.8C437.5 387.3 433.1 384.7 431 383C420.8 375 414.6 358.8 416.8 346.6C421.8 319.8 449.1 304.9 472.8 316C480.9 319.8 485.1 319.9 487.9 316.4C492.1 311 490 306.3 481.4 302C469.8 296.3 457.4 294.8 444.5 297.5C433.5 299.8 425.6 304.3 416.9 312.9L409.2 320.5L371.4 302.3C350.5 292.3 333.1 283.9 332.6 283.7C332.1 283.6 332.6 280.3 333.6 276.5C336.1 266.9 336.2 245.2 333.7 236C331.5 228 326 216.2 321.6 209.9L318.2 205.3L326.4 197.1C330.9 192.7 334.8 189 335.2 189C335.5 189 337.6 191.5 339.9 194.5C343.7 199.5 344.4 200 348 200C353.2 200 356 197.3 356 192.4C356 189.7 354.9 187.4 351.4 182.8L346.7 176.8L366.4 157.1L386.1 137.4L390.8 139.7C410.5 149.4 435.3 140.5 444.8 120.2C447.2 115.1 447.5 113.3 447.5 103.5C447.5 93.4 447.3 92 444.6 86.5C440.8 78.8 433.2 71.2 425.5 67.4C420 64.7 418.6 64.5 408.5 64.5C398.7 64.5 396.9 64.8 391.8 67.2C371.5 76.7 362.6 101.5 372.3 121.2L374.6 125.9L340.6 159.8L306.5 193.8L302.5 190.8C297 186.6 283.8 180.4 276 178.3C267 175.8 245 175.8 236 178.3C228 180.5 216.2 186 209.9 190.4L205.3 193.8L197.1 185.6L188.9 177.4L190.6 174.2C194.5 166.2 186.3 158.6 179.1 163.6C176.8 165.3 176.6 165.1 145.6 134.1L114.5 103L116.3 100.3C125.2 86.7 129.1 70.6 127.2 56.1C125.9 46.3 124 43.6 118.6 43.6C111.9 43.6 109.6 47.8 111.1 57.5C115.8 87.7 86.6 116.3 56.4 111.1C38.4 107.9 23.8 95.3 18 78C16.2 72.6 15.9 69.8 16.2 61.5C16.5 52.4 16.9 50.8 20.2 43.7C26.4 30.8 38.4 20.7 51.9 17C54.2 16.4 59.7 15.9 64 15.9C73.9 15.9 82.3 18.6 91.1 24.6C101.3 31.4 108.4 30.1 108.4 21.3C108.4 18.3 107.7 17 104 13.8C98.8 9.19999 87.7 3.59999 79.5 1.49999C72 -0.400008 54.4 -0.400008 47 1.59999ZM418.6 82.4C426.8 86.2 432 94.6 432 104C432 124.9 406.4 135.3 391.5 120.5C384.4 113.3 382.4 101.9 386.8 93.4C389.1 88.8 394.8 83.4 399.4 81.4C404.4 79.3 412.8 79.7 418.6 82.4ZM271.2 193.9C312.7 204.5 332.6 251.4 311.3 288C306.4 296.3 296.3 306.4 288 311.3C270.2 321.6 247.5 322.7 229.5 314.1C191.1 295.8 180.1 248.3 206.7 215.5C222.2 196.5 247.8 187.9 271.2 193.9ZM262.4 417.4C283.2 423.7 286 451.8 266.7 461.5C249.7 469.9 230.1 456.3 232.4 437.6C233.4 428.4 240.2 420.3 249.2 417.5C254.8 415.7 256.7 415.7 262.4 417.4ZM39.2 466.6C45.1 469.7 48.7 477.7 47 484.2C42 502.1 16 499 16 480.6C16 468.1 27.9 460.9 39.2 466.6Z" fill="#A7A9BE"/>
<path d="M251.3 137.6C250 138.7 248.7 140.9 248.4 142.7C247.9 145.4 248.3 146.4 250.8 149C253.6 151.7 254.5 152 261.2 152.2C265.2 152.3 270.1 152.4 271.9 152.3C278.5 152.2 281.2 144.7 276.7 139.5C274.6 137 273.7 136.8 264 136.3C254.7 135.8 253.2 136 251.3 137.6Z" fill="#A7A9BE"/>
<path d="M214.5 143C210.1 144.7 205.7 146.9 204.8 148.1C200.8 152.9 204.2 161 210.2 161C213 161 228.6 155.6 230.6 153.9C234.2 151 232.8 143.1 228.4 141.1C224.9 139.5 223.5 139.7 214.5 143Z" fill="#A7A9BE"/>
<path d="M296 148C293.7 150.3 293.3 155.8 295.3 158.2C295.9 159 300 161.6 304.2 163.8C313.5 168.9 317.9 169.3 320.9 165.4C325.3 159.8 322.7 155.2 312.1 149.6C304.2 145.5 299.1 144.9 296 148Z" fill="#A7A9BE"/>
<path d="M149.6 200.9C146.9 203.9 142.1 216.2 142 220.2C142 225 144.8 228 149.3 228C151.1 228 153.4 227.4 154.4 226.7C156.5 225.2 163 209.6 163 206C163 200.1 153.6 196.5 149.6 200.9Z" fill="#A7A9BE"/>
<path d="M357.6 215.1C354.4 217.6 354.3 220.4 357.1 231.3C359.6 241.2 361 243 366.2 243C372.1 243 374.4 240.1 373.7 233.6C372.9 226 370.1 217.2 367.7 215C365 212.4 360.9 212.5 357.6 215.1Z" fill="#A7A9BE"/>
<path d="M138.2 246.3C136.2 248.4 136 249.7 136 258.7C136 267.3 136.3 269.1 138.1 271.4C140.7 274.7 146.9 275.1 150 272C151.7 270.3 152 268.7 152 259.6C152 250.7 151.7 248.9 149.9 246.6C147.2 243.1 141.3 243 138.2 246.3Z" fill="#A7A9BE"/>
<path d="M362.7 261C360.8 262.5 359.9 264.4 359.5 267.8C359.1 270.4 358.1 275.5 357.3 279.2C356 285.1 356 286.2 357.4 288.8C359.9 293.6 365.2 294.5 369.4 290.7C372.2 288.3 374.9 278.1 375.3 268.7C375.5 264.5 375.1 263.5 372.7 261.4C369.3 258.5 366.1 258.3 362.7 261Z" fill="#A7A9BE"/>
<path d="M146 292C143 295 143.5 299.6 148 308.8C152 317.1 154.1 319 159.1 319C161.8 319 166 314.6 166 311.7C166 309 159.6 294.5 157.2 291.7C155.1 289.3 148.6 289.4 146 292Z" fill="#A7A9BE"/>
<path d="M309 345.3C302.3 349.6 300.3 351.4 299.6 353.9C298.9 356.5 299.1 357.6 300.7 359.8C304.3 364.7 307.3 364.9 314.8 361C323.7 356.3 328 352.1 328 348.2C328 344.1 325.2 341 321 340.5C318.1 340 316.2 340.8 309 345.3Z" fill="#A7A9BE"/>
<path d="M211.6 355.1C209.6 356.7 209 358 209 360.9C209 365.9 211.7 368.3 220.4 370.9C229.9 373.8 234.3 373.7 236.9 370.4C241.9 364 238.2 359.1 225.7 355.5C215.1 352.5 214.9 352.5 211.6 355.1Z" fill="#A7A9BE"/>
</svg>
