<svg width="512" height="512" viewBox="0 0 512 512" fill="none" xmlns="http://www.w3.org/2000/svg">
<path d="M230.5 0.700017C163.4 7.90002 102.6 40 59.8001 91C29.7001 126.8 11.0001 167.4 2.7001 215C0.800098 225.9 0.600098 231.2 0.600098 256C0.600098 280.8 0.800098 286.1 2.7001 297C12.1001 351 34.7001 395.7 72.0001 434.4C110.3 474.2 158.6 499.4 215 509.3C225.9 511.2 231.2 511.4 256 511.4C287.3 511.4 296.7 510.4 321.3 504.1C409.5 481.3 481.3 409.5 504.1 321.3C510.4 296.7 511.4 287.3 511.4 256C511.4 224.7 510.4 215.3 504.1 190.7C481.3 102.6 409.5 30.7 321.3 7.90002C298.6 2.10002 287.9 0.800017 260 0.500017C246 0.300017 232.7 0.400017 230.5 0.700017ZM283.5 58.6C316.3 63.1 348.9 76.7 376.5 97.4C386.7 105 406.8 125.1 414.6 135.5C435.1 162.7 448.6 194.9 453.5 228.4C455.6 242.7 455.6 269.3 453.5 283.6C448.6 317 435.2 349.1 414.6 376.5C406.9 386.8 386.8 406.9 376.5 414.6C354.8 430.9 332.1 441.9 305.5 449C289.1 453.3 275 455.1 256 455.1C237 455.1 222.9 453.3 206.5 449C170.2 439.3 141.9 423.1 115.4 396.6C88.9001 370.1 72.7001 341.8 63.0001 305.5C58.7001 289.1 56.9001 275 56.9001 256C56.9001 237 58.7001 222.9 63.0001 206.5C72.7001 170.1 88.8001 142.1 115.5 115.4C132.8 98 150 85.7 170.5 76.1C206.5 59.1 244.6 53.2 283.5 58.6Z" fill="#A7A9BE"/>
<path d="M247.5 128.9C242.4 131.2 237.4 136.3 235.8 140.9C234.8 143.7 234.5 159 234.5 207.5V270.5L236.7 275C238.3 278.2 251.7 292.2 282.2 322.7C328.7 369 327.4 368 337.8 368C353.3 368 363.8 350.9 357.1 336.5C355.8 333.9 342.2 319.6 317.1 294.5L279 256.5V202.8C279 167.3 278.6 147.3 277.9 143.9C275.1 130.9 259.7 123.3 247.5 128.9Z" fill="#A7A9BE"/>
</svg>
