<svg width="512" height="512" viewBox="0 0 512 512" fill="#a7a9be" xmlns="http://www.w3.org/2000/svg">
<path d="M27.1 1.09998C16.7 3.09998 7.7 10.2 3.2 19.8C1 24.5 0.5 26.9 0.5 33.5C0.5 49 -6.3 41.3 108 155.5L209 256.5L107.1 358.5C24.4 441.4 4.9 461.4 3 465.5C-0.4 472.6 -0.5 485.4 2.8 492.5C5.7 498.8 12.1 505.4 18.5 508.8C25.7 512.5 37.2 513 45.5 510C51.3 507.8 54.9 504.4 153.8 405.6L256 303.5L357.8 405.1C439.5 486.7 460.5 507.2 464.5 509.1C468.7 511.1 471 511.5 479 511.5C487.3 511.5 489.1 511.1 493.5 508.8C499.7 505.6 506.4 498.5 509.3 492.2C512.5 485.4 512.3 472.5 509 465.5C507.1 461.4 487.6 441.4 404.9 358.5L303 256.5L404 155.5C518.3 41.3 511.5 49 511.5 33.5C511.5 27 511 24.5 508.9 20C500.8 2.79997 480.5 -4.20005 463.5 4.19995C460.9 5.49995 424.4 41.2 357.8 107.8L256 209.5L154.3 107.8C87.6 41.2 51.1 5.49995 48.5 4.19995C45.1 2.49995 34 -0.300024 32.1 0.0999756C31.8 0.199976 29.5 0.599976 27.1 1.09998Z" fill="#a7a9be"/>
</svg>
