<svg width="512" height="512" viewBox="0 0 512 512" fill="none" xmlns="http://www.w3.org/2000/svg">
<path d="M256 32C132.3 32 32 132.3 32 256C32 379.7 132.3 480 256 480C379.7 480 480 379.7 480 256C480 132.3 379.7 32 256 32ZM276.2 358.7C275.7 376.5 262.5 387.5 245.4 387C229 386.5 216.1 374.8 216.6 356.9C217.1 339.1 230.7 327.8 247.1 328.3C264.3 328.8 276.8 340.9 276.2 358.7ZM324.9 231.4C320.7 237.3 311.3 244.9 299.5 254.1L286.4 263.1C280 268 276 273.8 273.9 280.4C272.8 283.9 272 293 271.8 299.1C271.7 300.3 271 303 267.3 303C263.6 303 232.3 303 228.2 303C224.1 303 223.6 300.6 223.7 299.4C224.3 282.8 226.7 269.1 233.6 258.1C242.9 243.3 269.1 227.7 269.1 227.7C273.1 224.7 276.2 221.5 278.6 218C283 212 286.6 205.3 286.6 198.1C286.6 189.8 284.6 181.9 279.3 175.3C273.1 167.6 266.4 163.9 253.5 163.9C240.8 163.9 233.4 170.3 228.1 178.7C222.8 187.1 223.7 197 223.7 206H175C175 172 183.9 150.3 202.7 137.5C215.4 128.8 231.6 125 250.5 125C275.3 125 295 129.6 312.4 142.8C328.5 155 337 172.2 337 195.4C337 209.7 332 221.7 324.9 231.4Z" fill="#A7A9BE"/>
</svg>
