<svg width="512" height="512" viewBox="0 0 512 512" fill="none" xmlns="http://www.w3.org/2000/svg">
<g clip-path="url(#clip0_11:44)">
<path d="M168.8 1.90002C151.8 7.50002 139.3 22.6 136.7 40.6C131.7 75.4 165.9 103.5 199.3 92.1C218.6 85.4 231 67.7 231 47C231 28.2 221.1 12.5 204 4.20002C196.9 0.800017 195.8 0.500017 185.5 0.300017C176.9 0.100017 173.3 0.400017 168.8 1.90002Z" fill="#A7A9BE"/>
<path d="M312.2 2.40002C284.6 12.7 272.9 43.4 286.5 70C300.8 97.9 340.4 103.1 362.5 79.9C386.7 54.6 376.1 12.2 342.9 1.90002C334 -0.899983 320.5 -0.599983 312.2 2.40002Z" fill="#A7A9BE"/>
<path d="M83.2998 113.5C69.5998 117.2 58.4998 126.6 52.3998 139.5C49.2998 145.9 48.6998 148.4 48.1998 155.8C47.2998 171.7 51.2998 182.5 61.8998 193.1C71.4998 202.6 81.9998 207 95.5998 207C125.6 207 148.1 179.3 141.9 149.8C139.2 136.8 129.7 123.8 118.4 117.8C108.4 112.4 93.9998 110.7 83.2998 113.5Z" fill="#A7A9BE"/>
<path d="M404 113.8C373.8 121.7 359.7 157.3 376 184.4C388.6 205.4 415.8 213 438.6 202C441.1 200.7 445.7 197.4 448.8 194.5C460.1 184 464.6 172.4 463.8 156.3C463.4 148.4 462.8 146.1 459.7 139.5C449.6 118.3 426.9 107.8 404 113.8Z" fill="#A7A9BE"/>
<path d="M8.3 225.9C5.9 227 3.2 229.3 2 231.2C0 234.4 0 236 0 323.5C0 404.2 0.2 412.8 1.6 415C4 418.6 90.8 505.7 95.4 509.1L99.3 512H147.9C194.6 512 196.6 511.9 199.8 510C201.6 508.9 203.9 506.6 205 504.8C206.9 501.6 207 499.6 207 454.2C207 416 206.7 406.3 205.6 403.7C204.8 401.9 192.8 389.2 178.9 375.3C149.7 346.4 148.6 345.6 135.5 345.6C129.3 345.6 126.5 346.1 123 347.8C111.5 353.4 105 363.3 104.9 375.3C104.8 386.2 106.9 390.8 117.2 401.7C126.9 412.1 128 413.9 128 420.5C128 428.6 119.6 435.1 111.2 433.5C108.1 432.9 103.9 429.2 83.7 409.2C70.6 396.2 59.3 384.6 58.7 383.5C57.8 382.1 57.4 365.2 57 322.5C56.5 265.1 56.4 263.3 54.2 256.9C49.7 243.3 41.4 233.9 28.9 228.1C20.2 224 13.8 223.4 8.3 225.9Z" fill="#A7A9BE"/>
<path d="M490.7 225.1C476 228.6 463.1 241 457.8 256.9C455.6 263.3 455.5 265.1 455 322.5C454.6 365.2 454.2 382.1 453.3 383.5C452.7 384.6 441.4 396.2 428.3 409.2C408.1 429.2 403.9 432.9 400.8 433.5C392.4 435.1 384 428.6 384 420.5C384 413.9 385.1 412.1 394.8 401.7C405.1 390.8 407 386.6 407 375.5C407 363.2 400.7 353.5 389 347.8C385.5 346.1 382.7 345.6 376.5 345.6C363.4 345.6 362.3 346.4 333.1 375.3C319.2 389.2 307.2 401.9 306.4 403.7C305.3 406.3 305 416 305 454.2C305 499.6 305.1 501.6 307 504.8C308.1 506.6 310.4 508.9 312.2 510C315.4 511.9 317.4 512 364.1 512H412.7L416.6 509.1C421.2 505.7 508 418.6 510.4 415C511.8 412.8 512 404.2 512 323.5C512 236 512 234.4 510 231.2C507.8 227.6 501.1 224 497 224.1C495.6 224.2 492.8 224.6 490.7 225.1Z" fill="#A7A9BE"/>
</g>
<defs>
<clipPath id="clip0_11:44">
<rect width="512" height="512" fill="white"/>
</clipPath>
</defs>
</svg>
