<svg width="512" height="512" viewBox="0 0 512 512" fill="none" xmlns="http://www.w3.org/2000/svg">
<g clip-path="url(#clip0_12:52)">
<path d="M315.903 176.393H131.626V189.556H315.903V176.393Z" fill="#A7A9BE"/>
<path d="M93.4683 196.137C100.738 196.137 106.631 190.244 106.631 182.974C106.631 175.705 100.738 169.812 93.4683 169.812C86.1988 169.812 80.3057 175.705 80.3057 182.974C80.3057 190.244 86.1988 196.137 93.4683 196.137Z" fill="#A7A9BE"/>
<path d="M315.903 242.206H131.626V255.369H315.903V242.206Z" fill="#A7A9BE"/>
<path d="M93.4683 261.95C100.738 261.95 106.631 256.057 106.631 248.787C106.631 241.518 100.738 235.625 93.4683 235.625C86.1988 235.625 80.3057 241.518 80.3057 248.787C80.3057 256.057 86.1988 261.95 93.4683 261.95Z" fill="#A7A9BE"/>
<path d="M93.4683 327.763C100.738 327.763 106.631 321.87 106.631 314.601C106.631 307.331 100.738 301.438 93.4683 301.438C86.1988 301.438 80.3057 307.331 80.3057 314.601C80.3057 321.87 86.1988 327.763 93.4683 327.763Z" fill="#A7A9BE"/>
<path d="M236.928 373.832H131.626V386.995H236.928V373.832Z" fill="#A7A9BE"/>
<path d="M93.4683 393.576C100.738 393.576 106.631 387.683 106.631 380.414C106.631 373.144 100.738 367.251 93.4683 367.251C86.1988 367.251 80.3057 373.144 80.3057 380.414C80.3057 387.683 86.1988 393.576 93.4683 393.576Z" fill="#A7A9BE"/>
<path d="M512 144.204L493.388 125.592L481.752 137.227L477.099 132.575L458.968 150.022L394.879 213.446V103.998C394.879 60.4499 360.794 25.0226 317.246 25.0226H309.322V18.4413C309.322 11.2019 304.741 5.27869 297.502 5.27869H225.107C225.107 -9.25943 213.32 -21.0466 198.782 -21.0466C184.244 -21.0466 172.457 -9.25943 172.457 5.27869H100.062C92.8229 5.27869 85.5571 11.2019 85.5571 18.4413V25.0226H80.3184C36.7698 25.0226 0 60.4499 0 103.998V433.064C0 476.613 36.7698 512.04 80.3184 512.04H317.246C360.794 512.04 394.879 476.613 394.879 433.064V269.282L481.081 182.974H481.417L504.859 160.098L500.285 155.635L512 144.204ZM198.782 -7.88394C206.048 -7.88394 211.945 -1.98708 211.945 5.27869C211.945 12.5445 206.048 18.4413 198.782 18.4413C191.516 18.4413 185.619 12.5445 185.619 5.27869C185.619 -1.98708 191.516 -7.88394 198.782 -7.88394ZM368.554 433.064C368.554 462.094 346.276 485.715 317.246 485.715H80.3184C51.2882 485.715 26.3253 462.094 26.3253 433.064V103.998C26.3253 74.9683 51.2882 51.3479 80.3184 51.3479H86.8997L80.3184 77.6732C80.3184 84.9126 86.2416 90.8358 93.481 90.8358H304.083C311.323 90.8358 317.246 84.9126 317.246 77.6732L310.664 51.3479H317.246C346.276 51.3479 368.554 74.9683 368.554 103.998V239.771L301.655 308.019H131.626V321.182H288.492L273.5 336.174L261.864 361.769H261.857L250.222 387.37L300.746 364.092L368.554 295.607V433.064ZM291.111 363.098L271.92 371.825L265.76 365.672L274.487 346.474L289.782 361.762L291.111 363.098ZM482.911 173.287L464.299 154.675L476.106 142.874L474.776 144.204L493.381 162.809L495.711 160.479L495.718 160.486L482.911 173.287Z" fill="#A7A9BE"/>
</g>
<defs>
<clipPath id="clip0_12:52">
<rect width="512" height="512" fill="white"/>
</clipPath>
</defs>
</svg>
