<svg width="512" height="512" viewBox="0 0 512 512" fill="none" xmlns="http://www.w3.org/2000/svg">
<path d="M168.5 1.29999C156 7.19999 153.3 24.4 163.2 34.7C167.2 38.8 170 39.7 183 41C188.8 41.5 195.3 42.5 197.5 43.1C204.2 45 212.7 50 218 55.2C223.3 60.5 227.6 67 225.9 67C225.3 67 219.4 66.3 212.7 65.4C198.2 63.5 171.9 64 157 66.5C127.7 71.4 102.7 81.3 77.9999 97.8C61.8999 108.5 42.2999 128.1 31.6999 144C14.6999 169.6 4.8999 196.8 0.999904 229C-0.500097 241.3 -0.200097 274.6 1.4999 289C11.7999 377.4 60.4999 449.2 134.5 485.5C172.2 503.9 209.1 512 256 512C302.9 512 339.8 503.9 377.5 485.5C451.5 449.2 500.2 377.4 510.5 289C512.2 274.6 512.5 241.3 511 229C502.9 162.4 467.6 111.7 410 84.1C388.5 73.8 364.9 67.3 340.5 65C322.6 63.3 311.9 63.7 290.1 66.6L284.7 67.3L287.9 62.6C292.5 56 298.4 50.6 304.9 47.2C312.3 43.2 316.5 42.2 329 41C342 39.7 344.8 38.8 348.8 34.7C357.4 25.8 356.9 12.4 347.7 4.29999C343.1 0.199992 339.4 -0.400008 325.1 0.299992C300 1.49999 277.8 11.5 262.1 28.6L256 35.3L250.5 29.2C239.6 17.2 223.1 7.39999 206.5 2.99999C196.1 0.199992 173 -0.800008 168.5 1.29999ZM211 106.5C223.1 108.3 233.6 111.3 242.5 115.3C252.3 119.7 259.8 119.7 269.7 115.2C296.5 103.1 332.9 101.8 367.3 111.6C415.7 125.5 451 160 464.6 207C469 222.2 470.2 231.5 470.7 253.7L471.2 275H423.1H375V263.2C375 250.2 373.6 245.7 368.4 240.8C364.5 237.2 361 236 354.2 236C347.1 236 341.8 238.9 337.5 244.8C334.6 249 334.5 249.6 334.1 262.1L333.8 275H304.9H276V242.7C276 211.2 275.9 210.4 273.7 206.5C272.5 204.4 269.5 201.2 267.2 199.5C263.4 196.9 262 196.5 256 196.5C250 196.5 248.6 196.9 244.8 199.5C242.5 201.2 239.5 204.4 238.3 206.5C236.1 210.4 236 211.2 236 242.7V275H207.1H178.2L177.9 262.1C177.5 249.6 177.4 249 174.5 244.8C170.2 238.9 164.9 236 157.8 236C151 236 147.5 237.2 143.6 240.8C138.4 245.7 137 250.2 137 263.2V275H88.9999H40.9999V257.9C40.9999 214.7 51.9999 182.3 76.2999 154C97.6999 129 133.6 110.7 170 106.1C180.7 104.7 200.9 104.9 211 106.5ZM464 316.5C464 316.7 461.9 323.3 459.4 331C436 402.2 380.3 451.7 306.9 466.4C289 470 277 471.1 255.5 471.1C227.1 471 205.7 467.9 181.8 460.3C129.1 443.7 88.8999 409 63.9999 358.8C58.7999 348.3 47.9999 319.7 47.9999 316.5C47.9999 316.2 141.6 316 256 316C370.4 316 464 316.2 464 316.5Z" fill="#A7A9BE"/>
<path d="M244.9 356.9C238.6 360.9 219.3 381 217.5 385.3C214.4 392.8 216.5 403.5 222.1 408.7C227.6 413.7 237.5 415.5 244.4 412.6C246.3 411.8 249.6 409.5 251.9 407.5L256 403.8L260.1 407.5C265.3 412.2 269.7 414 275.7 414C287.4 413.9 296 405.3 296 393.5C296 386.2 293.7 382.4 282.2 370.7C268 356.2 264.6 354 256 354C250.4 354 248.7 354.4 244.9 356.9Z" fill="#A7A9BE"/>
</svg>
