<svg width="512" height="512" viewBox="0 0 512 512" fill="#a7a9be" xmlns="http://www.w3.org/2000/svg">
<path d="M79 1.10003C77.6 1.70003 75.4 3.10003 74.2 4.30003C69.1 9.00003 69 9.90003 69 40.9V69.9L41.3 70.2C15.4 70.5 13.3 70.6 10 72.6C8.1 73.7 5.5 76.1 4.3 78L2 81.3V291V500.7L4.3 504C5.5 505.8 7.8 508.3 9.3 509.4L12.1 511.5H222.5H432.9L435.7 509.4C437.2 508.3 439.5 505.8 440.7 504C443 500.8 443 500.1 443 471.4V442.1L470.8 441.8C496.6 441.5 498.7 441.4 502 439.4C503.9 438.3 506.5 435.9 507.7 434L510 430.7V221V11.3L507.8 8.00003C506.5 6.20003 504.2 3.70003 502.7 2.60003L499.9 0.50003L290.7 0.30003C153.1 0.20003 80.6 0.50003 79 1.10003ZM478 221V410L460.8 409.8L443.5 409.5L443 244.8L442.5 80.1L440.4 77.3C439.2 75.8 436.8 73.6 434.9 72.5C431.5 70.5 429.5 70.5 266.3 70.2L101 70V51V32H289.5H478V221ZM411 291V480H222.5H34V291V102H222.5H411V291Z" fill="#a7a9be"/>
</svg>
