<svg width="512" height="512" viewBox="0 0 512 512" fill="none" xmlns="http://www.w3.org/2000/svg">
<path d="M167.8 1.99999C163.6 4.29999 159.8 8.89999 158.1 13.9C157.5 15.8 157 22.2 157 28.1V39H129.7C105.9 39 101.7 39.2 95.8 40.9C78.6 45.8 66.1 58 60.8 75C59.1 80.1 59 93.2 59 275.6C59 467.2 59 470.9 61 477.1C65.9 492.8 79 505.7 94.9 510.4C99.8 511.8 116.5 512 256.4 512C403.2 512 412.8 511.9 418 510.2C431.3 505.9 441.8 497.4 447.8 486.2C454.4 473.8 454 488.3 454 275.5C454 87.8 453.9 82.3 452.1 75.7C447.1 58.3 433.5 45.1 415.5 40.5C410.9 39.3 403.5 39 382.4 39H355.2L354.8 25.7C354.5 13.2 354.3 12.1 351.8 8.29999C350.2 5.89999 347.4 3.39999 344.8 2.09999C340.4 -7.62939e-06 340 -7.62939e-06 255.9 -7.62939e-06C174.2 0.0999924 171.4 0.0999924 167.8 1.99999ZM315 59V78H256.5H198V59V40H256.5H315V59ZM157.1 92.3C157.5 104 157.7 104.9 160.5 109.5C162.5 112.7 165 115.1 167.9 116.7L172.4 119L257.6 118.8L342.8 118.5L346.6 115.4C354.1 109.4 354.5 108.3 354.8 93.4L355.2 80H380.1C406.1 80 407.9 80.3 411.2 84.4C412.9 86.4 413 98 413 275.8V465.2L410.2 468C408.3 469.9 405.9 471 402.9 471.5C400.5 471.8 332.8 472 252.5 471.8C129.5 471.5 106.2 471.3 104.4 470.1C99.2 466.6 99.5 478.2 99.2 279.5C99 177.7 99.2 92.5 99.5 90.1C100 87.1 101.1 84.7 103 82.8L105.8 80H131.3H156.8L157.1 92.3Z" fill="#A7A9BE"/>
<path d="M328 228.3C325.3 229.1 313.2 240.6 277.2 276.4L230 323.5L210.7 304.4C200.2 293.9 190.1 284.3 188.3 283.1C180.7 278 169.2 279.7 162.6 287C156.1 294.2 155.5 303.9 161 312.1C165.3 318.7 216.9 369.4 221.2 371.3C225.9 373.5 233.5 373.4 238.5 371.1C243.5 368.8 352.4 259.9 353.9 255.7C354.5 254.1 355 250.4 355 247.4C355 233.1 342.1 224 328 228.3Z" fill="#A7A9BE"/>
</svg>
